# AST/ASF file generated using VICON BodyLanguage
# -----------------------------------------------
:version 1.10
:name VICON
:units
  mass 1.0
  length 0.45
  angle deg
:documentation
   .ast/.asf automatically generated from VICON data using
   VICON BodyBuilder and BodyLanguage model FoxedUp or BRILLIANT.MOD
:root
   order TX TY TZ RX RY RZ
   axis XYZ
   position 0 0 0  
   orientation 0 0 0 
:bonedata
  begin
     id 1 
     name lhipjoint
     direction 0.707368 -0.647095 0.284426 
     length 2.60678 
     axis 0 0 0  XYZ
  end
  begin
     id 2 
     name lfemur
     direction 0.34202 -0.939693 0  
     length 6.63812  
     axis 0 0 20  XYZ
    dof rx ry rz
    limits (-160.0 20.0)
           (-70.0 70.0)
           (-60.0 70.0)
  end
  begin
     id 3 
     name ltibia
     direction 0.34202 -0.939693 0   
     length 7.51178   
     axis 0 0 20   XYZ
    dof rx
    limits (-10.0 170.0)
  end
  begin
     id 4 
     name lfoot
     direction 0.121251 -0.333133 0.935051   
     length 1.83716   
     axis -90 7.62852e-016 20   XYZ
    dof rx rz
    limits (-45.0 90.0)
           (-70.0 20.0)
  end
  begin
     id 5 
     name ltoes
     direction 1.53611e-011 -4.21962e-011 1   
     length 0.916133   
     axis -90 7.62852e-016 20   XYZ
    dof rx
    limits (-90.0 20.0)
  end
  begin
     id 6 
     name rhipjoint
     direction -0.692419 -0.660507 0.290321   
     length 2.55385  
     axis 0 0 0  XYZ 
  end
  begin
     id 7 
     name rfemur
     direction -0.34202 -0.939693 0   
     length 7.29079   
     axis 0 0 -20   XYZ
    dof rx ry rz
    limits (-160.0 20.0)
           (-70.0 70.0)
           (-70.0 60.0)
  end
  begin
     id 8 
     name rtibia
     direction -0.34202 -0.939693 0   
     length 7.47143   
     axis 0 0 -20   XYZ
    dof rx
    limits (-10.0 170.0)
 end
 begin
     id 9 
     name rfoot
     direction -0.119907 -0.329441 0.936532   
     length 1.79439  
     axis -90 -7.62852e-016 -20   XYZ
    dof rx rz
    limits (-45.0 90.0)
           (-20.0 70.0)
  end
  begin
     id 10 
     name rtoes
     direction -1.53571e-011 -4.21961e-011 1   
     length 0.896039   
     axis -90 -7.62852e-016 -20   XYZ
    dof rx
    limits (-90.0 20.0)
  end
  begin
     id 11 
     name lowerback
     direction 0.0367721 0.992912 -0.113016   
     length 1.73542   
     axis 0 0 0   XYZ
    dof rx ry rz
    limits (-20.0 45.0)
           (-30.0 30.0)
           (-30.0 30.0)
  end
  begin
     id 12 
     name upperback
     direction -0.000314626 0.990678 0.136227   
     length 1.7514   
     axis 0 0 0   XYZ
    dof rx ry rz
    limits (-20.0 45.0)
           (-30.0 30.0)
           (-30.0 30.0)
  end
  begin
     id 13 
     name thorax
     direction -0.0226159 0.981151 0.191917   
     length 1.71471   
     axis 0 0 0   XYZ
    dof rx ry rz
    limits (-20.0 45.0)
           (-30.0 30.0)
           (-30.0 30.0)
  end
  begin
     id 14 
     name lowerneck
     direction 0.0219333 0.998071 0.0580739   
     length 1.65882   
     axis 0 0 0   XYZ
    dof rx ry rz
    limits (-20.0 45.0)
           (-30.0 30.0)
           (-30.0 30.0)
  end
  begin
     id 15 
     name upperneck
     direction 0.0384529 0.980058 -0.194957   
     length 1.6612   
     axis 0 0 0   XYZ
    dof rx ry rz
    limits (-20.0 45.0)
           (-30.0 30.0)
           (-30.0 30.0)
  end
  begin
     id 16
     name head
     direction 0.00592123 0.997421 -0.0715234  
     length 1.68077  
     axis 0 0 0   XYZ
    dof rx ry rz
    limits (-20.0 45.0)
           (-30.0 30.0)
           (-30.0 30.0)
  end
  begin
     id 17 
     name lclavicle
     direction 0.904803 0.417826 0.0821728  
     length 3.42227  
     axis 0 0 0   XYZ
    dof ry rz
    limits (-20.0 10.0)
           (0.0 20.0)
  end
  begin
     id 18 
     name lhumerus
     direction 1 -4.48965e-011 -2.68786e-027   
     length 5.11878   
     axis -180 -30 -90   XYZ
    dof rx ry rz
    limits (-60.0 90.0)
           (-90.0 90.0)
           (-90.0 90.0)
  end
  begin
     id 19
     name lradius
     direction 1 -4.48965e-011 2.61168e-028   
     length 3.59971   
     axis -180 -30 -90   XYZ
    dof rx
    limits (-10.0 170.0)
  end
  begin
     id 20
     name lwrist
     direction 1 -4.48965e-011 1.58672e-027   
     length 1.79985   
     axis -1.65735e-015 90 90   XYZ
    dof ry
    limits (-180.0 0.0)
 end
  begin
     id 21 
     name lhand
     direction 1 -4.48942e-011 3.17344e-027   
     length 0.62877   
     axis -2.02492e-015 90 90   XYZ
    dof rx rz
    limits (-90.0 90.0)
           (-45.0 45.0)
  end
  begin
     id 22 
     name lfingers
     direction 1 -4.49011e-011 6.34687e-027   
     length 0.506931   
     axis -4.04985e-015 90 90   XYZ
    dof rx
    limits (0.0 90.0)
  end
  begin
     id 23
     name lthumb
     direction 0.707107 -6.34982e-011 0.707107   
     length 0.727854   
     axis -90 45 2.85299e-015   XYZ
    dof rx rz
    limits (-45.0 45.0)
           (-45.0 45.0)
  end
  begin
     id 24 
     name rclavicle
     direction -0.945647 0.32488 0.0143075   
     length 3.52737  
     axis 0 0 0   XYZ 
    dof ry rz
    limits (-10.0 20.0)
           (-20.0 0.0)
  end
  begin
     id 25 
     name rhumerus
     direction -1 -4.48962e-011 1.92182e-027  
     length 5.4902   
     axis -180 30 90   XYZ
    dof rx ry rz
    limits (-90.0 60.0)
           (-90.0 90.0)
           (-90.0 90.0)
  end
  begin
     id 26 
     name rradius
     direction -1 -4.48967e-011 -5.97193e-028   
     length 3.20659   
     axis -180 30 90   XYZ
    dof rx
    limits (-10.0 170.0)
  end
  begin
     id 27 
     name rwrist
     direction -1 -4.48964e-011 1.58672e-027   
     length 1.6033   
     axis -1.65735e-015 -90 -90   XYZ
    dof ry
    limits (-180.0 0.0)
  end
  begin
     id 28
     name rhand
     direction -1 -4.49006e-011 3.17344e-027   
     length 0.691885   
     axis -2.02492e-015 -90 -90   XYZ
    dof rx rz
    limits (-90.0 90.0)
           (-45.0 45.0)
  end
  begin
     id 29
     name rfingers
     direction -1 -4.48908e-011 6.34687e-027   
     length 0.557815   
     axis -4.04985e-015 -90 -90   XYZ
    dof rx
    limits (0.0 90.0)
  end
  begin
     id 30
     name rthumb
     direction -0.707107 -6.34999e-011 0.707107   
     length 0.800915   
     axis -90 -45 -2.85299e-015   XYZ
    dof rx rz
    limits (-45.0 45.0)
           (-45.0 45.0)
  end
:hierarchy
  begin
    root lhipjoint rhipjoint lowerback
    lhipjoint lfemur
    lfemur ltibia
    ltibia lfoot
    lfoot ltoes
    rhipjoint rfemur
    rfemur rtibia
    rtibia rfoot
    rfoot rtoes
    lowerback upperback
    upperback thorax
    thorax lowerneck lclavicle rclavicle
    lowerneck upperneck
    upperneck head
    lclavicle lhumerus
    lhumerus lradius
    lradius lwrist
    lwrist lhand lthumb
    lhand lfingers
    rclavicle rhumerus
    rhumerus rradius
    rradius rwrist
    rwrist rhand rthumb
    rhand rfingers
  end

#!OML:ASF I:\Actors\actors\Patient Classification 1\Patient 1\Session 1\Subject1.ASF
:FULLY-SPECIFIED
:DEGREES
148
root -0.0282534 17.4684 8.5497 10.0524 -1.6255 -8.17362
lowerback -1.44178 1.35086 5.17591
upperback -8.07084 2.09144 2.01178
thorax -7.5459 0.770026 -0.881588
lowerneck -6.74153 -7.21594 -4.94254
upperneck 18.7112 -10.8025 7.72371
head 7.54511 -4.89833 2.36659
rclavicle -7.37988e-015 -1.47101e-014
rhumerus -43.089 9.35666 -97.6702
rradius 75.1798
rwrist 2.02779
rhand 0.84987 -41.2669
rfingers 7.12502
rthumb 26.4041 -69.4481
lclavicle -7.37988e-015 -1.47101e-014
lhumerus -48.1074 -4.94336 96.5388
lradius 68.2603
lwrist 16.9137
lhand -20.3213 -9.85748
lfingers 7.12502
lthumb 6.02961 20.0367
rfemur -4.46575 21.849 24.1648
rtibia 3.17061
rfoot -11.9081 -26.7263
rtoes 4.50629
lfemur 6.18507 -48.3853 -13.5189
ltibia -4.25738
lfoot -34.246 57.7324
ltoes 17.0735
149
root -0.0317014 17.468 8.53972 10.0069 -1.55256 -8.19765
lowerback -1.51737 1.39791 5.2029
upperback -8.01763 2.1453 1.97855
thorax -7.43899 0.796987 -0.93177
lowerneck -6.48205 -7.05155 -4.76761
upperneck 18.475 -10.5793 7.71133
head 7.39528 -4.79337 2.36871
rclavicle 8.19987e-015 1.82882e-014
rhumerus -42.6296 11.0709 -98.6383
rradius 76.8568
rwrist 1.2795
rhand 0.0537884 -41.3943
rfingers 7.12502
rthumb 25.6419 -69.6876
lclavicle 8.19987e-015 1.82882e-014
lhumerus -47.8697 -6.37006 97.4793
lradius 70.3421
lwrist 16.8089
lhand -20.6213 -10.2556
lfingers 7.12502
lthumb 5.73995 19.6467
rfemur -4.51178 21.7402 24.2106
rtibia 3.28095
rfoot -11.8752 -26.6781
rtoes 4.49502
lfemur 6.07755 -48.1636 -13.3729
ltibia -4.25339
lfoot -33.6411 57.5633
ltoes 16.6745
150
root -0.0322432 17.4716 8.54098 9.77002 -1.84055 -8.25846
lowerback -1.53021 1.57227 5.25881
upperback -7.87113 2.37029 1.94736
thorax -7.25682 0.909812 -1.00403
lowerneck -6.34819 -6.96175 -4.59003
upperneck 18.3803 -10.4416 7.56065
head 7.31309 -4.73349 2.31105
rclavicle -9.88954e-015 -6.55989e-015
rhumerus -42.2105 12.9561 -99.6714
rradius 78.4736
rwrist -0.152351
rhand -1.88237 -41.4592
rfingers 7.12502
rthumb 23.7862 -70.0069
lclavicle -9.88954e-015 -6.55989e-015
lhumerus -47.594 -7.83745 98.4009
lradius 72.3386
lwrist 16.7944
lhand -20.9333 -10.3764
lfingers 7.12502
lthumb 5.43878 19.5338
rfemur -4.31361 21.6073 24.3651
rtibia 3.39161
rfoot -11.821 -26.2793
rtoes 4.33418
lfemur 6.8068 -48.239 -13.8788
ltibia -4.35169
lfoot -34.4018 57.7186
ltoes 17.2403
151
root -0.0310235 17.4752 8.5395 9.54998 -1.95368 -8.30205
lowerback -1.53339 1.67254 5.31762
upperback -7.74484 2.49952 1.94619
thorax -7.10872 0.975339 -1.04209
lowerneck -6.25248 -6.8583 -4.3721
upperneck 18.3474 -10.2633 7.25113
head 7.24509 -4.6618 2.19778
rclavicle -1.75179e-014 9.74045e-015
rhumerus -41.6043 14.4652 -100.207
rradius 79.9636
rwrist 0.738521
rhand 0.675825 -41.8763
rfingers 7.12502
rthumb 26.2375 -70.0825
lclavicle -1.75179e-014 9.74045e-015
lhumerus -47.3109 -9.24992 99.2751
lradius 74.3116
lwrist 17.3941
lhand -21.0467 -10.6803
lfingers 7.12502
lthumb 5.32927 19.2327
rfemur -4.13114 21.4608 24.49
rtibia 3.48748
rfoot -11.8627 -26.0056
rtoes 4.37781
lfemur 7.19307 -48.0188 -14.1104
ltibia -4.39977
lfoot -34.5341 57.5619
ltoes 17.539
152
root -0.0398874 17.4715 8.50377 9.80847 -1.22997 -8.19964
lowerback -1.58963 1.47438 5.13227
upperback -7.86659 2.23409 1.977
thorax -7.22913 0.852947 -0.895434
lowerneck -6.06598 -6.69772 -4.18707
upperneck 18.2175 -10.0053 6.99038
head 7.12988 -4.55437 2.11687
rclavicle -7.7526e-015 3.26007e-014
rhumerus -41.0625 16.2931 -100.865
rradius 81.2461
rwrist 1.543
rhand 1.77438 -41.4709
rfingers 7.12502
rthumb 27.2888 -69.5162
lclavicle -7.7526e-015 3.26007e-014
lhumerus -46.9771 -10.5533 100.108
lradius 76.2677
lwrist 18.3499
lhand -21.225 -11.3524
lfingers 7.12502
lthumb 5.15711 18.5649
rfemur -4.61202 21.3976 24.2912
rtibia 3.64119
rfoot -12.1233 -26.567
rtoes 4.91731
lfemur 5.24218 -46.33 -12.5514
ltibia -4.14989
lfoot -30.6295 56.0471
ltoes 15.1899
153
root -0.0355595 17.4723 8.50308 9.63371 -1.35445 -8.13999
lowerback -1.72635 1.56688 5.11696
upperback -7.70351 2.3389 1.97018
thorax -6.96724 0.913821 -0.893344
lowerneck -5.74328 -6.49769 -3.98365
upperneck 17.9173 -9.6983 6.80077
head 6.93688 -4.42292 2.06577
rclavicle 3.41413e-014 -1.76918e-014
rhumerus -40.6041 18.372 -101.613
rradius 82.213
rwrist 3.37372
rhand 0.833057 -39.8124
rfingers 7.12502
rthumb 26.3881 -67.9961
lclavicle 3.41413e-014 -1.76918e-014
lhumerus -46.536 -11.9012 100.955
lradius 78.0986
lwrist 19.0999
lhand -21.6555 -12.1158
lfingers 7.12502
lthumb 4.74139 17.8112
rfemur -4.46317 21.2446 24.2465
rtibia 3.70071
rfoot -12.0789 -26.3358
rtoes 4.54325
lfemur 5.62145 -46.4685 -12.9695
ltibia -4.11169
lfoot -30.997 56.1749
ltoes 15.4766
154
root -0.0324289 17.469 8.49925 9.58428 -1.44762 -8.06993
lowerback -1.94152 1.68112 5.1436
upperback -7.57218 2.46681 1.91149
thorax -6.69051 0.981868 -0.966418
lowerneck -5.61642 -6.39017 -4.10653
upperneck 17.855 -9.57144 7.01965
head 6.90347 -4.35668 2.17185
rclavicle 1.55052e-014 8.54774e-015
rhumerus -39.9832 20.1528 -102.106
rradius 83.6181
rwrist 3.36727
rhand 0.810063 -39.7383
rfingers 7.12502
rthumb 26.366 -67.9253
lclavicle 1.55052e-014 8.54774e-015
lhumerus -46.0047 -13.361 101.724
lradius 79.7431
lwrist 19.5598
lhand -22.0573 -12.6834
lfingers 7.12502
lthumb 4.35343 17.2519
rfemur -4.49069 21.1331 24.1562
rtibia 3.80689
rfoot -12.0315 -26.1651
rtoes 4.29348
lfemur 5.69308 -46.4241 -13.15
ltibia -4.05328
lfoot -31.2812 56.1409
ltoes 15.7556
155
root -0.0270616 17.4816 8.50182 8.91776 -0.845485 -7.83991
lowerback -1.6775 1.5487 5.20579
upperback -7.26008 2.28833 1.77935
thorax -6.50739 0.893271 -1.13772
lowerneck -5.63251 -6.29743 -4.09796
upperneck 17.844 -9.45063 7.07264
head 6.89743 -4.29304 2.19789
rclavicle 1.98785e-014 2.60408e-014
rhumerus -39.3014 21.8134 -102.519
rradius 85.0169
rwrist 3.45882
rhand 0.935006 -39.8213
rfingers 7.12502
rthumb 26.4856 -67.9902
lclavicle 1.98785e-014 2.60408e-014
lhumerus -45.469 -14.8765 102.353
lradius 81.327
lwrist 19.8956
lhand -22.372 -12.9541
lfingers 7.12502
lthumb 4.04951 16.9872
rfemur -3.44395 21.152 24.2771
rtibia 3.46599
rfoot -12.2244 -26.8236
rtoes 4.85762
lfemur 6.1769 -45.8506 -13.6948
ltibia -4.00328
lfoot -29.3337 55.3569
ltoes 14.3821
156
root -0.0294031 17.486 8.49978 8.64401 -0.691573 -7.7472
lowerback -1.71427 1.58009 5.18437
upperback -7.05256 2.31352 1.70532
thorax -6.25857 0.913426 -1.20077
lowerneck -5.72382 -6.23814 -3.90952
upperneck 17.9333 -9.37685 6.97707
head 6.92422 -4.24787 2.14005
rclavicle -1.01877e-015 9.93923e-016
rhumerus -38.6068 23.4237 -102.828
rradius 86.404
rwrist 3.63434
rhand 1.06916 -39.8985
rfingers 7.12502
rthumb 26.614 -68.0481
lclavicle -1.01877e-015 9.93923e-016
lhumerus -44.9556 -16.32 102.902
lradius 82.8617
lwrist 20.2333
lhand -22.5527 -12.9638
lfingers 7.12502
lthumb 3.87503 16.9807
rfemur -3.05989 21.1998 24.3346
rtibia 3.3844
rfoot -12.2611 -27.0621
rtoes 5.02025
lfemur 6.45219 -45.6175 -13.9487
ltibia -4.0312
lfoot -28.6493 55.0948
ltoes 13.8734
157
root -0.0312682 17.4884 8.49095 8.51214 -0.739782 -7.75207
lowerback -1.76063 1.67335 5.19016
upperback -6.91038 2.42752 1.68948
thorax -6.07177 0.975763 -1.22101
lowerneck -5.69171 -6.17114 -3.6645
upperneck 17.9831 -9.29408 6.85588
head 6.91232 -4.20066 2.07005
rclavicle 1.0461e-014 3.20043e-014
rhumerus -37.9021 25.0635 -103.005
rradius 87.7715
rwrist 3.85564
rhand 1.20286 -39.8827
rfingers 7.12502
rthumb 26.742 -68.0127
lclavicle 1.0461e-014 3.20043e-014
lhumerus -44.4622 -17.654 103.462
lradius 84.2816
lwrist 20.6154
lhand -22.7099 -13.0693
lfingers 7.12502
lthumb 3.72322 16.8779
rfemur -2.99011 21.1986 24.3718
rtibia 3.45789
rfoot -12.2261 -27.0354
rtoes 5.16299
lfemur 6.6318 -45.6594 -14.0876
ltibia -4.00661
lfoot -28.7087 55.1429
ltoes 13.8878
